HIERARCHY
ROOT Hips
{
    OFFSET 0.000000 0.000000 0.000000
    CHANNELS 6 Xposition Yposition Zposition Zrotation Xrotation Yrotation
    JOINT Spine
    {
        OFFSET -0.000000 7.236184 0.000000
        CHANNELS 3 Zrotation Xrotation Yrotation
        JOINT Spine1
        {
            OFFSET -0.000000 20.420147 0.000000
            CHANNELS 3 Zrotation Xrotation Yrotation
            JOINT Neck
            {
                OFFSET -0.000000 20.336288 1.848754
                CHANNELS 3 Zrotation Xrotation Yrotation
                JOINT Head
                {
                    OFFSET -0.000000 12.354461 -1.764923
                    CHANNELS 3 Zrotation Xrotation Yrotation
                    End Site
                    {
                        OFFSET -0.000000 22.061537 0.000000
                    }
                }
            }
            JOINT LeftShoulder
            {
                OFFSET 3.573296 18.396038 -0.314103
                CHANNELS 3 Zrotation Xrotation Yrotation
                JOINT LeftArm
                {
                    OFFSET 10.880760 0.000000 0.000000
                    CHANNELS 3 Zrotation Xrotation Yrotation
                    JOINT LeftForeArm
                    {
                        OFFSET 27.185530 0.000000 0.000000
                        CHANNELS 3 Zrotation Xrotation Yrotation
                        JOINT LeftHand
                        {
                            OFFSET 27.825975 0.000000 0.000000
                            CHANNELS 3 Zrotation Xrotation Yrotation
                            End Site
                            {
                                OFFSET 13.236923 0.000000 0.000000
                            }
                        }
                    }
                }
            }
            JOINT RightShoulder
            {
                OFFSET -3.474926 18.396038 -0.314103
                CHANNELS 3 Zrotation Xrotation Yrotation
                JOINT RightArm
                {
                    OFFSET -10.880760 0.000000 0.000000
                    CHANNELS 3 Zrotation Xrotation Yrotation
                    JOINT RightForeArm
                    {
                        OFFSET -27.185530 0.000000 0.000000
                        CHANNELS 3 Zrotation Xrotation Yrotation
                        JOINT RightHand
                        {
                            OFFSET -27.825975 0.000000 0.000000
                            CHANNELS 3 Zrotation Xrotation Yrotation
                            End Site
                            {
                                OFFSET -13.236923 0.000000 0.000000
                            }
                        }
                    }
                }
            }
        }
    }
    JOINT LeftUpLeg
    {
        OFFSET 8.824615 0.000000 0.000000
        CHANNELS 3 Zrotation Xrotation Yrotation
        JOINT LeftLeg
        {
            OFFSET -0.000000 -35.111282 0.000000
            CHANNELS 3 Zrotation Xrotation Yrotation
            JOINT LeftFoot
            {
                OFFSET -0.000000 -42.324711 0.000000
                CHANNELS 3 Zrotation Xrotation Yrotation
                JOINT LeftToeBase
                {
                    OFFSET -0.000000 -5.735999 13.236923
                    CHANNELS 3 Zrotation Xrotation Yrotation
                    End Site
                    {
                        OFFSET -0.000000 0.000000 3.529846
                    }
                }
            }
        }
    }
    JOINT RightUpLeg
    {
        OFFSET -8.824615 0.000000 0.000000
        CHANNELS 3 Zrotation Xrotation Yrotation
        JOINT RightLeg
        {
            OFFSET -0.000000 -35.111282 0.000000
            CHANNELS 3 Zrotation Xrotation Yrotation
            JOINT RightFoot
            {
                OFFSET -0.000000 -42.324711 0.000000
                CHANNELS 3 Zrotation Xrotation Yrotation
                JOINT RightToeBase
                {
                    OFFSET -0.000000 -5.735999 13.236923
                    CHANNELS 3 Zrotation Xrotation Yrotation
                    End Site
                    {
                        OFFSET -0.000000 0.000000 3.529846
                    }
                }
            }
        }
    }
}
MOTION
Frames:    12
Frame Time:    0.008333
-9.607154    69.014000    125.250542    3.845003    -37.414722    -176.382614    -0.632227    -0.370269    0.704074    2.094125    8.943737    0.542307    -0.490979    -15.667167    3.583643    0.024361    -22.205549    3.874219    24.580761    -21.181570    -15.870686    -14.091266    -3.193601    -75.256401    12.821019    11.977626    -5.557907    56.487080    4.847942    -14.488962    -22.431784    -9.585533    16.356310    17.053156    -14.795505    60.283623    -25.178940    -5.886271    25.118107    -14.416367    -0.894228    5.558411    65.701187    -84.369141    60.410980    -3.260971    58.772377    13.898257    -4.378693    -7.135788    -17.895641    -0.145627    -6.024333    0.163280    -54.737061    -79.385475    -49.154758    0.102249    55.932953    11.363825    4.864649    -8.422372    -16.683144    -0.631406    -11.222232    0.694713    
-9.614375    69.234978    125.225922    3.878445    -37.447159    -176.375671    -0.616297    -0.481617    0.704080    2.113971    8.957310    0.541037    -0.531463    -15.643547    3.643656    0.463445    -22.135015    4.092516    24.569254    -21.131804    -15.888792    -14.018146    -3.131452    -75.243134    12.838106    11.980151    -5.565034    56.660919    4.879718    -14.386666    -22.412853    -9.535668    16.318317    16.910456    -14.683525    60.328217    -25.262362    -5.874099    25.086754    -14.430370    -0.866620    5.526354    63.348064    -84.193024    58.111439    -3.209650    58.301525    13.827875    -4.434541    -7.055378    -17.928986    -0.146678    -6.079982    0.164478    -53.305702    -79.229591    -47.722996    0.151465    55.448792    11.272168    4.789769    -8.394359    -16.712818    -0.612560    -11.369162    0.674147    
-9.622099    69.455231    125.201752    3.906645    -37.480885    -176.367630    -0.603168    -0.586207    0.704691    2.136140    8.969180    0.540184    -0.556128    -15.623260    3.706920    0.849225    -22.072388    4.291704    24.560558    -21.085960    -15.904054    -13.944342    -3.069375    -75.228004    12.859372    11.981378    -5.573861    56.829559    4.907719    -14.291738    -22.395618    -9.486944    16.281895    16.770166    -14.578671    60.366333    -25.351269    -5.853674    25.065678    -14.439679    -0.827184    5.497218    61.106010    -84.014275    55.917336    -3.170071    57.830631    13.765913    -4.498543    -6.990480    -17.953882    -0.147183    -6.142589    0.165064    -51.943317    -79.065300    -46.356789    0.195952    54.966831    11.180257    4.706000    -8.372202    -16.743189    -0.592530    -11.511497    0.652262    
-9.630419    69.675713    125.177856    3.929746    -37.516575    -176.358780    -0.592000    -0.684922    0.705964    2.159286    8.979000    0.539931    -0.566687    -15.606667    3.772126    1.185012    -22.017389    4.472177    24.555658    -21.043812    -15.916779    -13.869860    -3.007420    -75.210709    12.884170    11.982313    -5.583640    56.993370    4.932539    -14.204517    -22.379065    -9.439006    16.247169    16.630774    -14.479955    60.398014    -25.445766    -5.825601    25.053894    -14.443103    -0.776553    5.470576    58.964481    -83.833847    53.822910    -3.133319    57.359562    13.702054    -4.571279    -6.943290    -17.969509    -0.146968    -6.212207    0.164846    -50.643353    -78.893204    -45.049164    0.236169    54.484749    11.086290    4.614801    -8.356026    -16.773378    -0.571432    -11.648768    0.629187    
-9.639205    69.892555    125.154701    3.947564    -37.554264    -176.349472    -0.582898    -0.776676    0.707961    2.183517    8.986431    0.540260    -0.566990    -15.596459    3.835991    1.469364    -21.968288    4.631259    24.553957    -21.006332    -15.926624    -13.795988    -2.946850    -75.191528    12.911454    11.983457    -5.593904    57.148529    4.953876    -14.127288    -22.364864    -9.393628    16.214252    16.495794    -14.387897    60.423431    -25.544271    -5.790063    25.050280    -14.440185    -0.717579    5.446718    56.959595    -83.656372    51.868595    -3.090822    56.898392    13.627367    -4.651535    -6.916547    -17.975300    -0.145897    -6.286901    0.163670    -49.427143    -78.717926    -43.821426    0.271163    54.010769    10.992042    4.518806    -8.346101    -16.802679    -0.549892    -11.777330    0.605605    
-9.648458    70.106377    125.132133    3.960644    -37.594669    -176.339951    -0.574889    -0.862617    0.710601    2.207538    8.991433    0.541363    -0.558686    -15.592697    3.897549    1.707246    -21.924479    4.770176    24.555983    -20.973007    -15.934085    -13.723128    -2.888256    -75.169907    12.940685    11.985312    -5.604451    57.295078    4.971864    -14.060525    -22.351849    -9.350065    16.183708    16.363768    -14.302206    60.442829    -25.645193    -5.750875    25.053478    -14.431212    -0.648494    5.426330    55.080051    -83.482353    50.046394    -3.036909    56.447117    13.536045    -4.738641    -6.911485    -17.971502    -0.143911    -6.365819    0.161467    -48.286770    -78.540817    -42.665707    0.300825    53.543308    10.897731    4.419375    -8.342299    -16.830908    -0.528295    -11.896582    0.581940    
-9.658013    70.313904    125.110474    3.969281    -37.637714    -176.330475    -0.567927    -0.942701    0.713874    2.231510    8.994452    0.543043    -0.545543    -15.596294    3.954279    1.901219    -21.885338    4.888239    24.560337    -20.944275    -15.938993    -13.652273    -2.832890    -75.146317    12.971041    11.988111    -5.615194    57.430241    4.986366    -14.005548    -22.341326    -9.309790    16.155674    16.237814    -14.223128    60.456932    -25.747820    -5.707010    25.061743    -14.416584    -0.574515    5.409046    53.344990    -83.316040    48.374706    -2.971780    56.013386    13.429506    -4.830696    -6.928585    -17.958691    -0.141051    -6.446858    0.158285    -47.234467    -78.366089    -41.594162    0.324711    53.089199    10.805682    4.321132    -8.344473    -16.857922    -0.507500    -12.004976    0.559138    
-9.667862    70.516052    125.089561    3.974176    -37.683891    -176.320938    -0.560992    -1.017756    0.717637    2.254231    8.995083    0.545304    -0.528879    -15.607329    4.005502    2.057715    -21.849527    4.987322    24.567257    -20.919436    -15.941448    -13.584145    -2.781197    -75.120621    13.002339    11.992651    -5.626585    57.554512    4.998172    -13.962167    -22.332150    -9.272352    16.130369    16.116949    -14.150086    60.466560    -25.851704    -5.659082    25.073454    -14.397485    -0.496566    5.394840    51.734325    -83.157333    46.831879    -2.897511    55.595348    13.310667    -4.926652    -6.967623    -17.937708    -0.137754    -6.528939    0.154610    -46.258949    -78.194489    -40.595467    0.342847    52.646099    10.716700    4.223281    -8.351776    -16.884977    -0.487709    -12.102966    0.537426    
-9.677857    70.710007    125.069603    3.975674    -37.732738    -176.311630    -0.553849    -1.087429    0.721752    2.275249    8.993614    0.548022    -0.510709    -15.625876    4.049659    2.179995    -21.816555    5.067466    24.576086    -20.898617    -15.941300    -13.519898    -2.734468    -75.093132    13.033991    11.999487    -5.639138    57.666340    5.007978    -13.930500    -22.324831    -9.238929    16.108070    16.003742    -14.083618    60.472496    -25.954243    -5.608724    25.087008    -14.375531    -0.416543    5.384298    50.257759    -83.009361    45.423954    -2.819021    55.198917    13.185781    -5.023903    -7.026865    -17.910160    -0.134692    -6.610166    0.151199    -45.366589    -78.029610    -39.675781    0.355017    52.220245    10.633676    4.129349    -8.364040    -16.913427    -0.469698    -12.189641    0.517658    
-9.687951    70.895561    125.050560    3.974332    -37.784294    -176.302444    -0.546216    -1.151897    0.726078    2.294664    8.989749    0.551174    -0.493101    -15.651549    4.085788    2.274142    -21.785856    5.130236    24.585823    -20.881628    -15.938680    -13.459354    -2.692837    -75.064026    13.066026    12.009351    -5.653249    57.766586    5.016883    -13.909764    -22.319920    -9.209618    16.088499    15.899172    -14.023968    60.475906    -26.054049    -5.556612    25.100971    -14.352008    -0.335258    5.377723    48.904171    -82.872742    44.136784    -2.740285    54.824608    13.058981    -5.120658    -7.104409    -17.877237    -0.132888    -6.689388    0.149198    -44.551044    -77.872841    -38.828300    0.362022    51.812187    10.557287    4.038759    -8.380757    -16.945086    -0.453633    -12.265720    0.500019    
-9.698043    71.071030    125.032425    3.970372    -37.838127    -176.293579    -0.537732    -1.210944    0.730486    2.311293    8.983265    0.554641    -0.476093    -15.683134    4.113442    2.343834    -21.757444    5.176410    24.596958    -20.867695    -15.933500    -13.402571    -2.657157    -75.033630    13.098331    12.022383    -5.669327    57.855034    5.025675    -13.898794    -22.316410    -9.184718    16.072277    15.803852    -13.971821    60.477268    -26.149124    -5.503202    25.113836    -14.328675    -0.254655    5.375485    47.673786    -82.748909    42.967197    -2.666546    54.475471    12.936054    -5.214001    -7.197258    -17.840082    -0.132890    -6.765406    0.149223    -43.812748    -77.726311    -38.053024    0.364575    51.425827    10.488220    3.952075    -8.401272    -16.980751    -0.439742    -12.330863    0.484763    
-9.708039    71.234856    125.015213    3.963933    -37.893684    -176.285217    -0.528747    -1.264146    0.734972    2.325433    8.973948    0.558326    -0.460825    -15.721024    4.131962    2.393533    -21.729471    5.207079    24.608971    -20.857166    -15.925307    -13.349454    -2.626790    -75.003006    13.131021    12.038283    -5.687306    57.931805    5.034934    -13.895974    -22.314917    -9.164706    16.058586    15.719458    -13.927696    60.478161    -26.237387    -5.448852    25.124104    -14.307064    -0.176166    5.378005    46.566288    -82.639236    41.911789    -2.602464    54.154583    12.821422    -5.301613    -7.302568    -17.798481    -0.134869    -6.836464    0.151466    -43.151794    -77.592178    -37.350105    0.363518    51.065125    10.426270    3.871164    -8.425297    -17.019667    -0.428154    -12.386353    0.472035    
